# xmcd CD database file generated by Grip 3.3.0
# 
# Track frame offsets:
#       150
#       13152
#       28475
#       42275
#       55600
#       68150
#       82097
#       95400
#       109205
#       121715
#       135605
#       149472
#       164067
#       180377
#       193005
#       206165
#       218752
#       233982
#       248102
#       261677
#       276682
#       289592
#       303400
# 
# Disc length: 4231 seconds
# 
# Revision: 4
# Processed by: cddbd v1.5.1PL0 Copyright (c) Steve Scherf et al.
# Submitted via: Grip 3.3.0
# 
DISCID=6b108517
DTITLE=Blind Blake - The Best of Blind Blake
DYEAR=2000
DGENRE=Blues
TTITLE0=Southern Rag
TTITLE1=Georgia Bound
TTITLE2=Blind Arthur's Breakdown
TTITLE3=Too Tight Blues - No. 2
TTITLE4=Dry Bone Shuffle
TTITLE5=Rope Stretchin' Blues - Part 1
TTITLE6=Panther Squall Blues
TTITLE7=Skeedle Loo Doo Blues
TTITLE8=You Gonna Quit Me Blues
TTITLE9=Sea Board Stomp
TTITLE10=No Dough Blues
TTITLE11=West Coast Blues
TTITLE12=Depression's Gone From Me Blues
TTITLE13=Come On Boys Let's Do That Messin' Around
TTITLE14=Wabash Rag
TTITLE15=He's In The Jailhouse Now
TTITLE16=Diddie Wa Diddie - No.2
TTITLE17=Blake's Worried Blues
TTITLE18=Ice Man Blues
TTITLE19=Doggin' Me Mama Blues
TTITLE20=Chump Man Blues
TTITLE21=Guitar Chimes
TTITLE22=Early Morning Blues
EXTD=Yazoo 2058\n2000 remaster
EXTT0=
EXTT1=
EXTT2=
EXTT3=
EXTT4=
EXTT5=
EXTT6=
EXTT7=
EXTT8=
EXTT9=
EXTT10=
EXTT11=
EXTT12=
EXTT13=
EXTT14=
EXTT15=
EXTT16=
EXTT17=
EXTT18=
EXTT19=
EXTT20=
EXTT21=
EXTT22=
PLAYORDER=
